<?xml version="1.0" encoding="UTF-8"?>
<!DOCTYPE svg PUBLIC "-//W3C//DTD SVG 1.1//EN" "http://www.w3.org/Graphics/SVG/1.1/DTD/svg11.dtd">
<svg xmlns="http://www.w3.org/2000/svg" version="1.1" width="546px" height="471px" style="shape-rendering:geometricPrecision; text-rendering:geometricPrecision; image-rendering:optimizeQuality; fill-rule:evenodd; clip-rule:evenodd" xmlns:xlink="http://www.w3.org/1999/xlink">
<g><path style="opacity:0.935" fill="#e47a80" d="M 287.5,154.5 C 286.737,155.268 285.737,155.768 284.5,156C 285.458,157.147 285.125,158.147 283.5,159C 264.927,169.776 246.927,181.276 229.5,193.5C 205.356,208.074 181.356,222.907 157.5,238C 158.373,239.045 159.373,239.878 160.5,240.5C 160.5,240.833 160.5,241.167 160.5,241.5C 146.052,250.108 131.718,258.942 117.5,268C 113.5,272.667 109.5,277.333 105.5,282C 91.4054,288.622 79.2387,286.122 69,274.5C 64.9015,276.798 61.0681,279.465 57.5,282.5C 56.452,281.617 55.2853,280.95 54,280.5C 51.6992,281.8 49.6992,283.467 48,285.5C 33.1334,275.817 25.9667,262.151 26.5,244.5C 28.7407,244.119 31.074,243.952 33.5,244C 49.4886,235.352 65.4886,226.686 81.5,218C 69.4449,218.388 59.2782,214.221 51,205.5C 49.2491,203.788 48.5825,201.788 49,199.5C 51.5366,196.628 54.3699,194.128 57.5,192C 112.495,156.49 169.162,123.49 227.5,93C 241.337,84.8297 254.337,75.4964 266.5,65C 282.959,56.8687 299.459,57.702 316,67.5C 317.457,70.366 317.79,73.366 317,76.5C 309.731,92.557 297.231,100.057 279.5,99C 267.839,107.166 255.839,114.832 243.5,122C 193.276,145.44 144.61,171.44 97.5,200C 97.0426,200.414 96.7093,200.914 96.5,201.5C 98.1667,202.5 99.5,203.833 100.5,205.5C 99.3523,207.149 98.019,208.649 96.5,210C 97.5,210.667 98.5,210.667 99.5,210C 121.829,200.331 144.162,188.997 166.5,176C 194.376,161.562 222.376,147.396 250.5,133.5C 259.038,146.942 271.371,153.942 287.5,154.5 Z"/></g>
<g><path style="opacity:0.618" fill="#7b67d1" d="M 441.5,112.5 C 438.975,111.319 436.475,109.986 434,108.5C 433.833,108.833 433.667,109.167 433.5,109.5C 436.614,111.38 439.28,113.713 441.5,116.5C 440.724,120.719 438.89,124.386 436,127.5C 434.1,126.923 432.267,126.256 430.5,125.5C 429.348,124.375 428.348,124.375 427.5,125.5C 425.708,125.366 424.042,125.699 422.5,126.5C 421.833,126.833 421.167,127.167 420.5,127.5C 419.005,127.415 418.005,128.081 417.5,129.5C 423.269,144.046 433.936,151.046 449.5,150.5C 448.357,150.908 447.357,151.575 446.5,152.5C 457.617,159.027 460.784,168.027 456,179.5C 453.083,183.666 450.416,187.999 448,192.5C 443.649,196.686 439.149,200.686 434.5,204.5C 413.183,214.475 391.849,224.142 370.5,233.5C 369.833,233.5 369.5,233.833 369.5,234.5C 369.167,234.5 368.833,234.5 368.5,234.5C 367.508,234.328 366.842,234.662 366.5,235.5C 366.167,235.5 365.833,235.5 365.5,235.5C 364.833,235.5 364.5,235.833 364.5,236.5C 363.508,236.328 362.842,236.662 362.5,237.5C 362.167,237.5 361.833,237.5 361.5,237.5C 360.508,237.328 359.842,237.662 359.5,238.5C 358.391,238.557 357.391,238.89 356.5,239.5C 355.508,239.328 354.842,239.662 354.5,240.5C 353.508,240.328 352.842,240.662 352.5,241.5C 352.167,241.5 351.833,241.5 351.5,241.5C 350.508,241.328 349.842,241.662 349.5,242.5C 346.843,242.935 344.509,243.935 342.5,245.5C 338.646,246.93 334.979,248.597 331.5,250.5C 330.508,250.328 329.842,250.662 329.5,251.5C 328.508,251.328 327.842,251.662 327.5,252.5C 326.508,252.328 325.842,252.662 325.5,253.5C 323.847,253.66 322.514,254.326 321.5,255.5C 320.508,255.328 319.842,255.662 319.5,256.5C 319.5,257.167 319.167,257.5 318.5,257.5C 318.167,256.167 317.833,256.167 317.5,257.5C 316.508,257.328 315.842,257.662 315.5,258.5C 313.847,258.66 312.514,259.326 311.5,260.5C 310.209,260.263 309.209,260.596 308.5,261.5C 308.5,262.167 308.167,262.5 307.5,262.5C 307.167,261.167 306.833,261.167 306.5,262.5C 305.508,262.328 304.842,262.662 304.5,263.5C 304.167,263.5 303.833,263.5 303.5,263.5C 302.833,263.5 302.5,263.833 302.5,264.5C 290.084,270.203 277.417,276.369 264.5,283C 252.399,290.712 240.066,297.879 227.5,304.5C 221.31,304.865 215.977,307.032 211.5,311C 206.35,313.66 201.017,315.827 195.5,317.5C 196.018,309.578 197.684,301.912 200.5,294.5C 200.167,294.167 199.833,293.833 199.5,293.5C 196.003,296.083 192.336,298.416 188.5,300.5C 177.916,316.138 163.916,320.638 146.5,314C 138.676,306.607 134.509,297.44 134,286.5C 131.528,276.568 134.528,268.901 143,263.5C 143.163,261.324 143.996,259.491 145.5,258C 148.291,256.382 151.291,255.215 154.5,254.5C 155.086,254.709 155.586,255.043 156,255.5C 160.748,252.209 165.581,249.042 170.5,246C 166.996,244.746 163.663,243.246 160.5,241.5C 160.5,241.167 160.5,240.833 160.5,240.5C 185.943,224.448 211.943,209.448 238.5,195.5C 270.982,180.185 300.482,160.518 327,136.5C 327.791,135.255 328.291,133.922 328.5,132.5C 330.167,131.5 331.5,130.167 332.5,128.5C 347.674,120.189 363.007,112.023 378.5,104C 388.083,99.8215 398.083,98.1548 408.5,99C 412.912,101.008 415.078,104.174 415,108.5C 419.167,106.083 423.167,104.083 427,102.5C 432.335,105.239 437.168,108.572 441.5,112.5 Z M 388.5,117.5 C 392.178,118.509 395.511,120.343 398.5,123C 396.753,123.352 395.086,123.852 393.5,124.5C 389.297,124.924 385.297,124.424 381.5,123C 382.851,119.805 385.185,117.972 388.5,117.5 Z M 426.5,175.5 C 425.643,181.071 423.977,186.405 421.5,191.5C 418.482,193.463 415.149,193.963 411.5,193C 410.139,191.416 409.472,189.582 409.5,187.5C 411.783,182.577 414.783,178.244 418.5,174.5C 421.459,172.94 424.126,173.273 426.5,175.5 Z"/></g>
<g><path style="opacity:0.859" fill="#e57b81" d="M 336.5,110.5 C 335.312,111.684 334.145,111.684 333,110.5C 331.731,111.905 331.231,113.571 331.5,115.5C 328.429,117.372 325.262,119.038 322,120.5C 320.068,122.393 320.235,124.06 322.5,125.5C 322.933,128.166 323.433,130.832 324,133.5C 326.551,128.395 330.051,124.062 334.5,120.5C 334.833,121.167 335.167,121.833 335.5,122.5C 334.511,124.494 333.511,126.494 332.5,128.5C 331.5,130.167 330.167,131.5 328.5,132.5C 315.816,139.528 303.15,146.528 290.5,153.5C 286.144,149.927 284.478,145.427 285.5,140C 283.247,133.644 283.914,127.477 287.5,121.5C 286.675,120.614 285.675,120.281 284.5,120.5C 284.247,118.173 284.914,116.173 286.5,114.5C 289.875,115.838 293.208,117.171 296.5,118.5C 298.569,118.176 298.902,117.342 297.5,116C 295.194,113.861 292.527,112.361 289.5,111.5C 281.203,115.542 272.537,116.376 263.5,114C 268.905,110.349 274.905,108.515 281.5,108.5C 288.777,108.723 296.111,108.89 303.5,109C 308.455,110.476 312.788,112.976 316.5,116.5C 317.315,114.724 318.482,114.057 320,114.5C 320.483,113.552 320.649,112.552 320.5,111.5C 323.005,111.02 325.338,110.02 327.5,108.5C 330.334,105.37 333.167,102.37 336,99.5C 336.207,103.089 336.707,106.589 337.5,110C 337.272,110.399 336.938,110.565 336.5,110.5 Z"/></g>
<g><path style="opacity:0.004" fill="#13071f" d="M 441.5,112.5 C 442.911,114.914 444.911,116.581 447.5,117.5C 455.141,125.096 459.141,134.096 459.5,144.5C 443.777,146.317 433.11,139.984 427.5,125.5C 428.348,124.375 429.348,124.375 430.5,125.5C 435.144,137.678 444.144,143.678 457.5,143.5C 455.991,132.136 450.658,123.136 441.5,116.5C 439.28,113.713 436.614,111.38 433.5,109.5C 433.667,109.167 433.833,108.833 434,108.5C 436.475,109.986 438.975,111.319 441.5,112.5 Z"/></g>
<g><path style="opacity:0.005" fill="#fe0000" d="M 336.5,110.5 C 336.453,113.568 335.953,116.568 335,119.5C 333.855,119.381 332.688,119.048 331.5,118.5C 331.5,117.5 331.5,116.5 331.5,115.5C 331.231,113.571 331.731,111.905 333,110.5C 334.145,111.684 335.312,111.684 336.5,110.5 Z"/></g>
<g><path style="opacity:0.004" fill="#fe00ff" d="M 374.5,112.5 C 371.178,115.263 368.178,118.43 365.5,122C 372.369,126.934 380.036,128.767 388.5,127.5C 386.972,128.309 385.306,128.976 383.5,129.5C 375.062,130.062 367.729,127.562 361.5,122C 364.029,118.306 367.029,115.14 370.5,112.5C 371.964,111.595 373.298,111.595 374.5,112.5 Z"/></g>
<g><path style="opacity:0.004" fill="#1600ff" d="M 383.5,115.5 C 381.217,115.608 379.217,116.441 377.5,118C 376.547,119.955 375.213,121.622 373.5,123C 379.636,125.178 385.969,126.012 392.5,125.5C 391.486,126.674 390.153,127.34 388.5,127.5C 380.036,128.767 372.369,126.934 365.5,122C 368.178,118.43 371.178,115.263 374.5,112.5C 376.119,112.404 377.785,112.404 379.5,112.5C 380.799,113.694 382.132,114.694 383.5,115.5 Z"/></g>
<g><path style="opacity:0.004" fill="#0000ff" d="M 441.5,112.5 C 444.089,113.419 446.089,115.086 447.5,117.5C 444.911,116.581 442.911,114.914 441.5,112.5 Z"/></g>
<g><path style="opacity:0.004" fill="#fefffe" d="M 331.5,115.5 C 331.5,116.5 331.5,117.5 331.5,118.5C 330.386,119.885 329.386,121.385 328.5,123C 327.004,123.507 325.837,123.007 325,121.5C 323.905,122.693 323.072,124.027 322.5,125.5C 320.235,124.06 320.068,122.393 322,120.5C 325.262,119.038 328.429,117.372 331.5,115.5 Z"/></g>
<g><path style="opacity:0.004" fill="#000000" d="M 383.5,115.5 C 385.403,115.796 387.07,116.463 388.5,117.5C 385.185,117.972 382.851,119.805 381.5,123C 385.297,124.424 389.297,124.924 393.5,124.5C 393.5,125.167 393.167,125.5 392.5,125.5C 385.969,126.012 379.636,125.178 373.5,123C 375.213,121.622 376.547,119.955 377.5,118C 379.217,116.441 381.217,115.608 383.5,115.5 Z"/></g>
<g><path style="opacity:0.004" fill="#eb3a27" d="M 262.5,115.5 C 263.376,115.369 264.043,115.702 264.5,116.5C 263.234,117.724 262.067,119.057 261,120.5C 260.308,119.975 259.808,119.308 259.5,118.5C 260.77,117.712 261.77,116.712 262.5,115.5 Z"/></g>
<g><path style="opacity:0.004" fill="#1900ff" d="M 427.5,125.5 C 433.11,139.984 443.777,146.317 459.5,144.5C 459.027,145.906 458.027,146.573 456.5,146.5C 439.934,148.556 428.601,141.889 422.5,126.5C 424.042,125.699 425.708,125.366 427.5,125.5 Z"/></g>
<g><path style="opacity:0.004" fill="#fe15ff" d="M 422.5,126.5 C 428.601,141.889 439.934,148.556 456.5,146.5C 455.71,147.401 454.71,148.068 453.5,148.5C 441.664,149.933 431.831,145.933 424,136.5C 422.259,133.691 421.092,130.691 420.5,127.5C 421.167,127.167 421.833,126.833 422.5,126.5 Z"/></g>
<g><path style="opacity:0.008" fill="#bcbcbc" d="M 370.5,112.5 C 367.029,115.14 364.029,118.306 361.5,122C 367.729,127.562 375.062,130.062 383.5,129.5C 379.694,130.315 375.861,130.648 372,130.5C 366.664,128.916 361.831,126.416 357.5,123C 360.552,117.768 364.886,114.268 370.5,112.5 Z"/></g>
<g><path style="opacity:0.008" fill="#acacaf" d="M 420.5,127.5 C 421.092,130.691 422.259,133.691 424,136.5C 431.831,145.933 441.664,149.933 453.5,148.5C 452.167,149.167 450.833,149.833 449.5,150.5C 433.936,151.046 423.269,144.046 417.5,129.5C 418.005,128.081 419.005,127.415 420.5,127.5 Z"/></g>
<g><path style="opacity:0.004" fill="#000000" d="M 439.5,129.5 C 441.446,130.254 442.279,131.588 442,133.5C 440.519,132.529 439.685,131.196 439.5,129.5 Z"/></g>
<g><path style="opacity:0.012" fill="#a050f1" d="M 409.5,131.5 C 413.353,143.775 421.686,150.942 434.5,153C 424.598,154.299 417.432,150.466 413,141.5C 410.965,138.439 409.799,135.105 409.5,131.5 Z"/></g>
<g><path style="opacity:0.985" fill="#d6778b" d="M 328.5,132.5 C 328.291,133.922 327.791,135.255 327,136.5C 300.482,160.518 270.982,180.185 238.5,195.5C 235.959,194.351 233.459,194.351 231,195.5C 230.283,194.956 229.783,194.289 229.5,193.5C 246.927,181.276 264.927,169.776 283.5,159C 285.125,158.147 285.458,157.147 284.5,156C 285.737,155.768 286.737,155.268 287.5,154.5C 288.609,154.443 289.609,154.11 290.5,153.5C 303.15,146.528 315.816,139.528 328.5,132.5 Z"/></g>
<g><path style="opacity:0.004" fill="#070707" d="M 425.5,157.5 C 426.49,163.31 426.823,169.31 426.5,175.5C 424.126,173.273 421.459,172.94 418.5,174.5C 418.389,173.883 418.056,173.383 417.5,173C 419.645,171.057 421.312,168.724 422.5,166C 422.167,165.667 421.833,165.333 421.5,165C 423.171,163.157 424.171,160.991 424.5,158.5C 425.167,158.5 425.5,158.167 425.5,157.5 Z"/></g>
<g><path style="opacity:0.004" fill="#000000" d="M 409.5,187.5 C 409.472,189.582 410.139,191.416 411.5,193C 415.149,193.963 418.482,193.463 421.5,191.5C 420.833,193.833 420.167,196.167 419.5,198.5C 411.624,200.977 407.624,197.977 407.5,189.5C 408.167,188.833 408.833,188.167 409.5,187.5 Z"/></g>
<g><path style="opacity:0.004" fill="#1d00ff" d="M 407.5,189.5 C 407.624,197.977 411.624,200.977 419.5,198.5C 418.507,201.144 417.507,203.81 416.5,206.5C 415.817,206.863 415.15,207.196 414.5,207.5C 408.752,204.71 405.419,200.043 404.5,193.5C 405.512,192.128 406.512,190.795 407.5,189.5 Z"/></g>
<g><path style="opacity:0.004" fill="#fb03ff" d="M 404.5,193.5 C 405.419,200.043 408.752,204.71 414.5,207.5C 414.5,208.167 414.167,208.5 413.5,208.5C 412.504,208.414 411.671,208.748 411,209.5C 406.846,205.846 403.679,201.513 401.5,196.5C 401.5,194.5 402.5,193.5 404.5,193.5 Z"/></g>
<g><path style="opacity:0.008" fill="#a5a5a5" d="M 401.5,196.5 C 403.679,201.513 406.846,205.846 411,209.5C 411.671,208.748 412.504,208.414 413.5,208.5C 412.458,210.791 410.958,211.791 409,211.5C 404.667,208.174 401.501,204.007 399.5,199C 399.639,197.699 400.305,196.866 401.5,196.5 Z"/></g>
<g><path style="opacity:0.993" fill="#bb72a0" d="M 229.5,193.5 C 229.783,194.289 230.283,194.956 231,195.5C 233.459,194.351 235.959,194.351 238.5,195.5C 211.943,209.448 185.943,224.448 160.5,240.5C 159.373,239.878 158.373,239.045 157.5,238C 181.356,222.907 205.356,208.074 229.5,193.5 Z"/></g>
<g><path style="opacity:0.924" fill="#afe49a" d="M 195.5,317.5 C 195.281,318.675 195.614,319.675 196.5,320.5C 202.598,317.318 209.265,314.818 216.5,313C 219.874,309.663 223.541,306.829 227.5,304.5C 240.066,297.879 252.399,290.712 264.5,283C 277.417,276.369 290.084,270.203 302.5,264.5C 303.167,264.5 303.5,264.167 303.5,263.5C 303.833,263.5 304.167,263.5 304.5,263.5C 305.492,263.672 306.158,263.338 306.5,262.5C 306.833,262.5 307.167,262.5 307.5,262.5C 308.167,262.5 308.5,262.167 308.5,261.5C 309.791,261.737 310.791,261.404 311.5,260.5C 313.38,260.771 314.713,260.104 315.5,258.5C 316.492,258.672 317.158,258.338 317.5,257.5C 317.833,257.5 318.167,257.5 318.5,257.5C 319.167,257.5 319.5,257.167 319.5,256.5C 320.492,256.672 321.158,256.338 321.5,255.5C 323.38,255.771 324.713,255.104 325.5,253.5C 326.492,253.672 327.158,253.338 327.5,252.5C 328.492,252.672 329.158,252.338 329.5,251.5C 330.492,251.672 331.158,251.338 331.5,250.5C 335.852,250.154 339.519,248.488 342.5,245.5C 345.346,245.448 347.68,244.448 349.5,242.5C 350.492,242.672 351.158,242.338 351.5,241.5C 351.833,241.5 352.167,241.5 352.5,241.5C 353.492,241.672 354.158,241.338 354.5,240.5C 355.492,240.672 356.158,240.338 356.5,239.5C 357.391,238.89 358.391,238.557 359.5,238.5C 360.492,238.672 361.158,238.338 361.5,237.5C 361.833,237.5 362.167,237.5 362.5,237.5C 363.492,237.672 364.158,237.338 364.5,236.5C 365.167,236.5 365.5,236.167 365.5,235.5C 365.833,235.5 366.167,235.5 366.5,235.5C 367.492,235.672 368.158,235.338 368.5,234.5C 368.833,234.5 369.167,234.5 369.5,234.5C 370.167,234.5 370.5,234.167 370.5,233.5C 394.226,224.647 418.226,216.48 442.5,209C 449.353,207.664 456.186,206.497 463,205.5C 472.091,205.863 480.591,208.697 488.5,214C 486.129,216.706 483.463,219.039 480.5,221C 447.691,229.216 416.024,240.716 385.5,255.5C 382.847,260.189 383.347,260.523 387,256.5C 387.221,259.943 388.221,260.276 390,257.5C 391.388,258.554 392.888,258.72 394.5,258C 413.63,249.069 433.63,242.735 454.5,239C 465.065,236.924 474.731,238.924 483.5,245C 485.071,248.071 486.571,251.238 488,254.5C 488.284,252.114 489.284,251.448 491,252.5C 494.232,257.361 495.732,262.694 495.5,268.5C 496.822,268.67 497.989,268.337 499,267.5C 496.398,273.073 491.565,277.573 484.5,281C 481.783,285.384 478.116,288.718 473.5,291C 462.263,293.331 450.93,296.331 439.5,300C 421.721,306.723 404.054,313.723 386.5,321C 336.5,343.333 286.5,365.667 236.5,388C 222.955,393.928 210.622,401.594 199.5,411C 182.523,416.565 170.023,411.398 162,395.5C 160.927,391.916 160.26,388.25 160,384.5C 149.749,389.464 139.749,394.798 130,400.5C 128.662,396.322 125.828,394.322 121.5,394.5C 116.4,377.416 119.233,361.083 130,345.5C 132.066,342.868 134.566,342.201 137.5,343.5C 152.446,337.461 167.279,331.128 182,324.5C 182.333,324.833 182.667,325.167 183,325.5C 184.622,323.5 186.455,321.667 188.5,320C 191.151,319.847 193.484,319.013 195.5,317.5 Z M 382.5,257.5 C 382.167,258.5 381.5,259.167 380.5,259.5C 380.5,258.167 381.167,257.5 382.5,257.5 Z"/></g>
<g><path style="opacity:0.004" fill="#fefffe" d="M 501.5,270.5 C 502.077,269.227 502.743,269.227 503.5,270.5C 503.03,271.463 502.363,271.463 501.5,270.5 Z"/></g>
<g><path style="opacity:0.98" fill="#9cb5af" d="M 227.5,304.5 C 223.541,306.829 219.874,309.663 216.5,313C 209.265,314.818 202.598,317.318 196.5,320.5C 195.614,319.675 195.281,318.675 195.5,317.5C 201.017,315.827 206.35,313.66 211.5,311C 215.977,307.032 221.31,304.865 227.5,304.5 Z"/></g>
<g><path style="opacity:0.004" fill="#000000" d="M 183.5,418.5 C 184.833,419.167 184.833,419.167 183.5,418.5 Z"/></g>
<g><path style="opacity:0.004" fill="#daffcd" d="M 178.5,422.5 C 179.251,421.427 180.251,421.26 181.5,422C 180.552,422.483 179.552,422.649 178.5,422.5 Z"/></g>
<g><path style="opacity:0.008" fill="#d4d282" d="M 166.5,425.5 C 166.897,424.475 167.563,424.308 168.5,425C 167.906,425.464 167.239,425.631 166.5,425.5 Z"/></g>
<g><path style="opacity:0.004" fill="#daffcd" d="M 169.5,425.5 C 170.251,424.427 171.251,424.26 172.5,425C 171.552,425.483 170.552,425.649 169.5,425.5 Z"/></g>
</svg>
